HIERARCHY
ROOT Hips
{
	OFFSET 0.000000 100.481300 0.000000
	CHANNELS 6 Xposition Yposition Zposition Xrotation Yrotation Zrotation
	JOINT Spine
	{
		OFFSET -0.279200 12.230698 -2.892100
		CHANNELS 3 Xrotation Yrotation Zrotation
		JOINT Spine1
		{
			OFFSET -0.325700 14.269203 -3.374200
			CHANNELS 3 Xrotation Yrotation Zrotation
			JOINT Spine2
			{
				OFFSET -0.372300 16.307602 -0.352600
				CHANNELS 3 Xrotation Yrotation Zrotation
				JOINT Neck
				{
					OFFSET -0.418800 17.814194 8.416900
					CHANNELS 3 Xrotation Yrotation Zrotation
					JOINT Head
					{
						OFFSET 0.000000 7.031097 3.806800
						CHANNELS 3 Xrotation Yrotation Zrotation
						JOINT HeadTop_End
						{
							OFFSET 0.000000 24.646606 12.978600
							CHANNELS 3 Xrotation Yrotation Zrotation
							End Site
							{
								OFFSET 0.000000 27.854965 0.000000
							}
						}
					}
				}
				JOINT LeftShoulder
				{
					OFFSET 16.952999 14.495407 -7.737500
					CHANNELS 3 Xrotation Yrotation Zrotation
					JOINT LeftArm
					{
						OFFSET 9.308998 -2.777710 0.208600
						CHANNELS 3 Xrotation Yrotation Zrotation
						JOINT LeftForeArm
						{
							OFFSET 29.972298 0.000000 0.000000
							CHANNELS 3 Xrotation Yrotation Zrotation
							JOINT LeftHand
							{
								OFFSET 26.026505 0.000000 0.000000
								CHANNELS 3 Xrotation Yrotation Zrotation
								JOINT LeftHandThumb1
								{
									OFFSET 12.240501 -7.147949 9.207150
									CHANNELS 3 Xrotation Yrotation Zrotation
									JOINT LeftHandThumb2
									{
										OFFSET 4.138618 -2.389435 2.389433
										CHANNELS 3 Xrotation Yrotation Zrotation
										JOINT LeftHandThumb3
										{
											OFFSET 2.726913 -1.574387 1.574386
											CHANNELS 3 Xrotation Yrotation Zrotation
											JOINT LeftHandThumb4
											{
												OFFSET 3.941010 -2.275345 2.275342
												CHANNELS 3 Xrotation Yrotation Zrotation
												End Site
												{
													OFFSET -0.005798 5.087799 0.009903
												}
											}
										}
									}
								}
								JOINT LeftHandIndex1
								{
									OFFSET 24.424698 -1.985611 5.953459
									CHANNELS 3 Xrotation Yrotation Zrotation
									JOINT LeftHandIndex2
									{
										OFFSET 6.426697 0.000000 0.000000
										CHANNELS 3 Xrotation Yrotation Zrotation
										JOINT LeftHandIndex3
										{
											OFFSET 5.337898 0.000000 0.000000
											CHANNELS 3 Xrotation Yrotation Zrotation
											JOINT LeftHandIndex4
											{
												OFFSET 4.409401 0.000000 0.000000
												CHANNELS 3 Xrotation Yrotation Zrotation
												End Site
												{
													OFFSET 0.000000 4.409363 0.014373
												}
											}
										}
									}
								}
								JOINT LeftHandMiddle1
								{
									OFFSET 23.810104 0.000000 0.000000
									CHANNELS 3 Xrotation Yrotation Zrotation
									JOINT LeftHandMiddle2
									{
										OFFSET 7.176498 0.000000 0.000000
										CHANNELS 3 Xrotation Yrotation Zrotation
										JOINT LeftHandMiddle3
										{
											OFFSET 6.774902 0.000000 0.000000
											CHANNELS 3 Xrotation Yrotation Zrotation
											JOINT LeftHandMiddle4
											{
												OFFSET 5.403328 0.000000 0.000000
												CHANNELS 3 Xrotation Yrotation Zrotation
												End Site
												{
													OFFSET -0.027702 5.403244 0.017414
												}
											}
										}
									}
								}
								JOINT LeftHandRing1
								{
									OFFSET 22.908401 -0.839279 -6.020567
									CHANNELS 3 Xrotation Yrotation Zrotation
									JOINT LeftHandRing2
									{
										OFFSET 6.337502 0.000000 0.000000
										CHANNELS 3 Xrotation Yrotation Zrotation
										JOINT LeftHandRing3
										{
											OFFSET 5.779297 0.000000 0.000000
											CHANNELS 3 Xrotation Yrotation Zrotation
											JOINT LeftHandRing4
											{
												OFFSET 4.965698 0.000000 0.000000
												CHANNELS 3 Xrotation Yrotation Zrotation
												End Site
												{
													OFFSET 0.000000 4.965668 0.016186
												}
											}
										}
									}
								}
								JOINT LeftHandPinky1
								{
									OFFSET 20.037003 -1.530319 -10.950146
									CHANNELS 3 Xrotation Yrotation Zrotation
									JOINT LeftHandPinky2
									{
										OFFSET 5.254700 0.000000 0.000000
										CHANNELS 3 Xrotation Yrotation Zrotation
										JOINT LeftHandPinky3
										{
											OFFSET 4.810204 0.000000 0.000000
											CHANNELS 3 Xrotation Yrotation Zrotation
											JOINT LeftHandPinky4
											{
												OFFSET 3.647202 0.000000 0.000000
												CHANNELS 3 Xrotation Yrotation Zrotation
												End Site
												{
													OFFSET 0.000000 3.647186 0.011889
												}
											}
										}
									}
								}
							}
						}
					}
				}
				JOINT RightShoulder
				{
					OFFSET -15.141001 14.495407 -7.737500
					CHANNELS 3 Xrotation Yrotation Zrotation
					JOINT RightArm
					{
						OFFSET -9.308998 -2.777710 0.208500
						CHANNELS 3 Xrotation Yrotation Zrotation
						JOINT RightForeArm
						{
							OFFSET -29.972300 0.000000 0.000000
							CHANNELS 3 Xrotation Yrotation Zrotation
							JOINT RightHand
							{
								OFFSET -26.026505 0.000000 0.000000
								CHANNELS 3 Xrotation Yrotation Zrotation
								JOINT RightHandThumb1
								{
									OFFSET -12.240601 -7.148026 9.207092
									CHANNELS 3 Xrotation Yrotation Zrotation
									JOINT RightHandThumb2
									{
										OFFSET -4.138618 -2.389435 2.389433
										CHANNELS 3 Xrotation Yrotation Zrotation
										JOINT RightHandThumb3
										{
											OFFSET -2.726974 -1.574417 1.574421
											CHANNELS 3 Xrotation Yrotation Zrotation
											JOINT RightHandThumb4
											{
												OFFSET -3.941010 -2.275345 2.275343
												CHANNELS 3 Xrotation Yrotation Zrotation
												End Site
												{
													OFFSET 0.005814 5.087799 0.009927
												}
											}
										}
									}
								}
								JOINT RightHandIndex1
								{
									OFFSET -24.424698 -1.985657 5.953444
									CHANNELS 3 Xrotation Yrotation Zrotation
									JOINT RightHandIndex2
									{
										OFFSET -6.426697 0.000000 0.000000
										CHANNELS 3 Xrotation Yrotation Zrotation
										JOINT RightHandIndex3
										{
											OFFSET -5.337898 0.000000 0.000000
											CHANNELS 3 Xrotation Yrotation Zrotation
											JOINT RightHandIndex4
											{
												OFFSET -4.409401 0.000000 0.000000
												CHANNELS 3 Xrotation Yrotation Zrotation
												End Site
												{
													OFFSET 0.000000 4.409363 0.014408
												}
											}
										}
									}
								}
								JOINT RightHandMiddle1
								{
									OFFSET -23.810097 0.000000 0.000000
									CHANNELS 3 Xrotation Yrotation Zrotation
									JOINT RightHandMiddle2
									{
										OFFSET -7.176498 0.000000 0.000000
										CHANNELS 3 Xrotation Yrotation Zrotation
										JOINT RightHandMiddle3
										{
											OFFSET -6.774902 0.000000 0.000000
											CHANNELS 3 Xrotation Yrotation Zrotation
											JOINT RightHandMiddle4
											{
												OFFSET -5.403328 0.000000 0.000000
												CHANNELS 3 Xrotation Yrotation Zrotation
												End Site
												{
													OFFSET 0.027702 5.403244 0.017457
												}
											}
										}
									}
								}
								JOINT RightHandRing1
								{
									OFFSET -22.908302 -0.839325 -6.020576
									CHANNELS 3 Xrotation Yrotation Zrotation
									JOINT RightHandRing2
									{
										OFFSET -6.337502 0.000000 0.000000
										CHANNELS 3 Xrotation Yrotation Zrotation
										JOINT RightHandRing3
										{
											OFFSET -5.779297 0.000000 0.000000
											CHANNELS 3 Xrotation Yrotation Zrotation
											JOINT RightHandRing4
											{
												OFFSET -4.965698 0.000000 0.000000
												CHANNELS 3 Xrotation Yrotation Zrotation
												End Site
												{
													OFFSET 0.000000 4.965668 0.016226
												}
											}
										}
									}
								}
								JOINT RightHandPinky1
								{
									OFFSET -20.037003 -1.530334 -10.950259
									CHANNELS 3 Xrotation Yrotation Zrotation
									JOINT RightHandPinky2
									{
										OFFSET -5.254700 0.000000 0.000000
										CHANNELS 3 Xrotation Yrotation Zrotation
										JOINT RightHandPinky3
										{
											OFFSET -4.810204 0.000000 0.000000
											CHANNELS 3 Xrotation Yrotation Zrotation
											JOINT RightHandPinky4
											{
												OFFSET -3.647202 0.000000 0.000000
												CHANNELS 3 Xrotation Yrotation Zrotation
												End Site
												{
													OFFSET 0.000000 3.647186 0.011917
												}
											}
										}
									}
								}
							}
						}
					}
				}
			}
		}
	}
	JOINT LeftUpLeg
	{
		OFFSET 15.427100 -6.655098 0.678600
		CHANNELS 3 Xrotation Yrotation Zrotation
		JOINT LeftLeg
		{
			OFFSET 4.081073 -39.591068 13.024000
			CHANNELS 3 Xrotation Yrotation Zrotation
			JOINT LeftFoot
			{
				OFFSET -4.081074 -37.707932 -15.979700
				CHANNELS 3 Xrotation Yrotation Zrotation
				JOINT LeftToeBase
				{
					OFFSET 5.346399 -15.068900 20.645000
					CHANNELS 3 Xrotation Yrotation Zrotation
					JOINT LeftToe_End
					{
						OFFSET 2.754700 0.931300 11.300900
						CHANNELS 3 Xrotation Yrotation Zrotation
						End Site
						{
							OFFSET 0.000000 11.669021 0.000000
						}
					}
				}
			}
		}
	}
	JOINT RightUpLeg
	{
		OFFSET -15.569500 -6.655098 0.678600
		CHANNELS 3 Xrotation Yrotation Zrotation
		JOINT RightLeg
		{
			OFFSET -4.081825 -39.591045 13.023800
			CHANNELS 3 Xrotation Yrotation Zrotation
			JOINT RightFoot
			{
				OFFSET 4.081824 -37.707954 -15.979600
				CHANNELS 3 Xrotation Yrotation Zrotation
				JOINT RightToeBase
				{
					OFFSET -5.346400 -15.068900 20.645000
					CHANNELS 3 Xrotation Yrotation Zrotation
					JOINT RightToe_End
					{
						OFFSET -2.754700 0.931300 11.300900
						CHANNELS 3 Xrotation Yrotation Zrotation
						End Site
						{
							OFFSET 0.000000 11.669021 0.000000
						}
					}
				}
			}
		}
	}
}
MOTION
Frames: 4
Frame Time: 0.033333
0.019879 94.278229 -0.759374 -2.497233 -4.783488 -0.391280 2.554561 -1.493640 0.185689 5.098798 -2.974245 0.510343 5.096194 -2.977865 0.510390 -5.611601 1.970470 -1.151947 -20.468721 9.156523 -1.745108 -0.000000 0.000000 0.000000 0.034812 -2.496729 -7.039009 -80.010380 -5.410595 -41.929121 0.000015 -142.458745 0.000019 -35.639937 -2.876901 27.515374 -2.472625 -25.948167 1.473993 7.009087 51.127924 3.267340 1.156562 23.112455 4.437454 0.000000 -0.000001 -0.000000 1.951250 4.806621 -44.169843 2.618498 5.406867 -51.655399 0.686973 3.002934 -25.765862 -0.000001 0.000000 -0.000001 2.616986 5.405678 -51.639229 2.620014 5.408067 -51.671563 0.686966 3.002934 -25.765878 -0.000001 -0.000000 -0.000002 2.974572 5.669129 -55.343766 2.974581 5.669135 -55.343834 0.891548 3.393654 -29.431371 -0.000002 0.000001 -0.000003 6.947585 7.997074 -59.668287 3.439152 1.873922 -60.017651 1.167986 3.841738 -33.810106 -0.000000 0.000001 0.000002 0.623734 14.396239 9.487653 -15.880171 21.339454 23.847551 0.000174 93.343920 -0.000223 14.232677 -11.924654 -3.309997 -1.849251 -3.581685 -6.586124 4.645059 -8.656831 -0.231324 -1.269823 0.126035 -2.098683 -0.000001 -0.000001 -0.000001 0.029481 -0.640950 5.266875 0.029477 -0.640889 5.266637 0.007373 -0.320786 2.633241 0.000000 0.000001 0.000000 0.029482 -0.640950 5.266875 0.029477 -0.640890 5.266635 0.007372 -0.320796 2.633234 -0.000001 0.000000 0.000001 0.178214 -1.567238 12.973909 0.178216 -1.567251 12.973882 0.113842 -1.255625 10.361063 0.000000 -0.000001 -0.000002 0.378096 -2.265768 18.945022 0.378076 -2.265741 18.945003 0.281607 -1.962519 16.330216 -0.000000 -0.000001 -0.000000 -5.251501 6.795520 7.617679 19.543674 8.697787 0.469728 -9.029748 11.186919 -8.789609 -0.327013 -0.000005 -0.000002 -0.000000 -0.000002 -0.000000 -7.607460 -4.879987 -9.592995 18.774296 -8.335042 -0.080693 -6.812901 -2.306061 10.007321 -2.147254 0.000005 -0.000002 -0.000000 0.000002 0.000000 
-0.055504 94.287033 -0.520293 -2.362417 -5.083970 -0.396762 2.500961 -1.522959 0.128488 4.995100 -3.036414 0.486783 4.991894 -3.040601 0.486947 -5.514697 1.933789 -1.107949 -20.325178 8.993683 -1.613435 -0.000002 0.000000 0.000000 0.048179 -2.517879 -6.700339 -79.839468 -5.348772 -42.169533 0.000019 -142.603763 0.000011 -35.064357 -2.764842 27.735882 -2.472625 -25.948160 1.473994 7.009086 51.127924 3.267341 1.156561 23.112453 4.437456 0.000000 0.000000 0.000000 1.951248 4.806621 -44.169850 2.618498 5.406869 -51.655392 0.686970 3.002935 -25.765861 -0.000002 -0.000000 0.000003 2.616983 5.405676 -51.639225 2.620019 5.408067 -51.671559 0.686962 3.002935 -25.765874 -0.000000 0.000002 0.000001 2.974571 5.669130 -55.343770 2.974581 5.669139 -55.343834 0.891544 3.393654 -29.431364 -0.000001 -0.000001 0.000002 6.947584 7.997072 -59.668287 3.439152 1.873923 -60.017644 1.167985 3.841736 -33.810106 0.000000 -0.000000 0.000002 0.606811 14.303171 9.598219 -15.054915 21.224874 23.199525 0.000954 93.534523 -0.000993 13.772474 -11.822555 -3.981556 -1.849241 -3.580704 -6.585966 4.644959 -8.655868 -0.231260 -1.269877 0.126526 -2.098631 0.000001 0.000000 -0.000000 0.029537 -0.641517 5.271075 0.029517 -0.641362 5.270327 0.007373 -0.321007 2.635079 -0.000001 -0.000000 -0.000000 0.029528 -0.641448 5.271087 0.029512 -0.641342 5.270331 0.007381 -0.321007 2.635084 0.000003 0.000000 -0.000000 0.181777 -1.582603 13.103474 0.181747 -1.582519 13.102642 0.116584 -1.270518 10.485386 -0.000002 -0.000000 0.000000 0.386902 -2.291268 19.167118 0.386907 -2.291251 19.166281 0.289088 -1.987799 16.547019 0.000000 -0.000001 -0.000000 -5.082722 6.836281 7.645862 19.445844 8.648051 0.476051 -9.172486 11.460416 -8.885660 -0.330227 -0.000000 0.000001 0.000000 0.000002 0.000000 -7.637081 -4.803638 -9.518025 18.768161 -8.344482 -0.081256 -6.938939 -2.191337 9.978871 -2.144556 -0.000009 0.000001 -0.000000 -0.000000 -0.000000 
-0.122784 94.287094 -0.309696 -2.260775 -5.201336 -0.414722 2.454183 -1.552927 0.085004 4.904383 -3.099006 0.467141 4.900666 -3.103604 0.467400 -5.430002 1.884145 -1.084020 -20.222139 8.743264 -1.493543 0.000002 0.000000 -0.000000 0.057647 -2.533427 -6.460477 -79.664075 -5.384611 -42.379770 0.000002 -142.643651 0.000028 -34.906385 -2.864377 27.948053 -2.472626 -25.948164 1.473994 7.009082 51.127917 3.267342 1.156563 23.112453 4.437455 -0.000000 -0.000001 -0.000001 1.951252 4.806623 -44.169843 2.618498 5.406867 -51.655406 0.686971 3.002935 -25.765857 -0.000000 0.000001 0.000004 2.616988 5.405680 -51.639225 2.620017 5.408065 -51.671559 0.686967 3.002934 -25.765873 0.000001 -0.000001 -0.000002 2.974574 5.669130 -55.343770 2.974582 5.669135 -55.343831 0.891546 3.393655 -29.431367 0.000000 -0.000001 -0.000001 6.947587 7.997074 -59.668287 3.439151 1.873923 -60.017651 1.167986 3.841738 -33.810106 -0.000001 0.000001 0.000001 0.598058 14.228263 9.650391 -14.423036 21.056889 22.772298 0.001014 94.011557 -0.001059 13.563158 -12.177527 -4.353520 -1.849258 -3.582413 -6.586227 4.645125 -8.657591 -0.231385 -1.269791 0.125689 -2.098716 -0.000001 -0.000000 -0.000001 0.029486 -0.641033 5.268438 0.029483 -0.640921 5.266624 0.007370 -0.320803 2.633229 -0.000001 0.000001 -0.000000 0.029496 -0.641102 5.268422 0.029473 -0.640889 5.266634 0.007377 -0.320813 2.633223 -0.000000 0.000000 0.000001 0.176748 -1.560879 12.920434 0.176757 -1.560925 12.920543 0.112734 -1.249515 10.310190 0.000001 0.000000 0.000001 0.374499 -2.255287 18.854199 0.374500 -2.255303 18.854324 0.278602 -1.952219 16.242012 0.000002 -0.000000 -0.000002 -4.981338 6.890297 7.704405 19.400102 8.603089 0.476875 -9.298654 11.560919 -8.961871 -0.331578 0.000007 -0.000004 0.000000 0.000002 0.000000 -7.588615 -4.691986 -9.425151 18.762378 -8.348624 -0.085815 -7.075466 -2.251026 9.971739 -2.142241 0.000007 -0.000000 0.000000 -0.000002 -0.000000 
-0.174992 94.295395 -0.131775 -2.186501 -5.173669 -0.446101 2.423718 -1.581099 0.065412 4.845682 -3.157072 0.467838 4.841571 -3.161925 0.468168 -5.353648 1.826344 -1.092304 -20.177702 8.425593 -1.414255 -0.000001 0.000000 0.000000 0.066152 -2.562871 -6.292804 -79.513101 -5.432144 -42.604060 -0.000023 -142.633392 -0.000040 -35.300917 -3.196536 28.122635 -2.472627 -25.948158 1.473993 7.009088 51.127921 3.267342 1.156560 23.112450 4.437455 -0.000000 -0.000000 0.000000 1.951251 4.806621 -44.169843 2.618497 5.406871 -51.655402 0.686972 3.002936 -25.765861 0.000002 -0.000000 0.000001 2.616986 5.405679 -51.639225 2.620016 5.408064 -51.671552 0.686964 3.002935 -25.765871 0.000000 -0.000000 -0.000001 2.974571 5.669129 -55.343770 2.974581 5.669137 -55.343831 0.891548 3.393656 -29.431367 -0.000000 0.000001 -0.000001 6.947586 7.997075 -59.668287 3.439148 1.873922 -60.017651 1.167983 3.841738 -33.810106 -0.000000 0.000000 -0.000000 0.595577 14.164741 9.654791 -13.962792 20.804471 22.531389 0.000379 94.631936 -0.000389 13.530968 -12.684147 -4.495502 -1.849277 -3.585079 -6.586643 4.645362 -8.660209 -0.231581 -1.269661 0.124345 -2.098870 0.000001 -0.000000 -0.000002 0.029363 -0.639650 5.258242 0.029373 -0.639818 5.257875 0.007353 -0.320262 2.628843 -0.000001 0.000000 -0.000000 0.029382 -0.639897 5.258208 0.029376 -0.639828 5.257873 0.007348 -0.320258 2.628847 -0.000002 -0.000001 -0.000001 0.160700 -1.489192 12.317036 0.160818 -1.489741 12.321730 0.100259 -1.178931 9.721647 0.000002 0.000000 -0.000000 0.334366 -2.134239 17.804621 0.334496 -2.134610 17.809343 0.244441 -1.830984 15.207553 -0.000001 0.000001 0.000001 -4.918698 6.912589 7.773969 19.361378 8.577579 0.475812 -9.386334 11.557545 -9.017298 -0.331232 0.000012 0.000002 -0.000000 0.000000 -0.000000 -7.477370 -4.655733 -9.354058 18.703901 -8.349322 -0.086034 -7.197789 -2.260226 9.985119 -2.154045 0.000010 0.000002 0.000000 0.000000 -0.000000 
